<?xml version="1.0" encoding="UTF-8" standalone="no"?>
<!DOCTYPE svg PUBLIC "-//W3C//DTD SVG 1.1//EN" "http://www.w3.org/Graphics/SVG/1.1/DTD/svg11.dtd">
<svg width="100%" height="100%" viewBox="0 0 150 380" version="1.1" xmlns="http://www.w3.org/2000/svg" xmlns:xlink="http://www.w3.org/1999/xlink" xml:space="preserve" xmlns:serif="http://www.serif.com/" style="fill-rule:evenodd;clip-rule:evenodd;">
    <g id="rect42" transform="matrix(1.04167,0,0,1.0411,0,0)">
        <rect x="-0.524" y="-0.395" width="145.232" height="365.3" style="fill:rgb(179,179,179);"/>
    </g>
    <g id="text31" transform="matrix(1.04167,0,0,1.0411,3.125,-486.335)">
        <path id="path254" d="M16.182,495.505C16.406,495.157 16.702,494.982 17.07,494.982L18.488,494.982C18.921,494.982 19.291,495.129 19.6,495.423C19.918,495.716 20.077,496.082 20.077,496.52L20.077,502.251L18.801,502.251L18.801,496.766C18.801,496.577 18.747,496.418 18.637,496.288C18.533,496.154 18.378,496.087 18.174,496.087L17.16,496.087C16.911,496.087 16.749,496.258 16.675,496.602C16.655,496.691 16.645,496.773 16.645,496.848L16.645,502.251L15.361,502.251L15.361,496.647C15.361,496.398 15.229,496.224 14.966,496.124C14.891,496.099 14.816,496.087 14.742,496.087L13.652,496.087C13.354,496.087 13.204,496.438 13.204,497.139L13.204,502.251L11.921,502.251L11.921,494.982L13.063,494.982L13.063,495.43C13.282,495.132 13.548,494.982 13.861,494.982L15.204,494.982C15.622,494.982 15.948,495.156 16.182,495.505Z" style="fill-rule:nonzero;"/>
        <path id="path256" d="M24.473,501.818C24.184,502.107 23.893,502.251 23.6,502.251L22.406,502.251C21.973,502.251 21.6,502.104 21.286,501.811C20.973,501.517 20.816,501.151 20.816,500.714L20.816,494.982L22.092,494.982L22.092,500.467C22.092,500.656 22.145,500.818 22.249,500.952C22.358,501.082 22.515,501.147 22.719,501.147L23.809,501.147C24.102,501.147 24.291,500.965 24.376,500.602C24.396,500.502 24.406,500.408 24.406,500.318L24.406,495.057L25.682,495.057L25.682,502.415C25.682,502.579 25.684,502.768 25.689,502.982C25.694,503.196 25.689,503.418 25.674,503.647C25.664,503.875 25.637,504.099 25.592,504.318C25.552,504.542 25.485,504.741 25.391,504.915C25.172,505.303 24.833,505.497 24.376,505.497L22.659,505.497C22.306,505.497 21.993,505.388 21.719,505.169C21.431,504.93 21.286,504.639 21.286,504.296L21.286,503.893L22.421,503.893C22.421,504.156 22.53,504.348 22.749,504.467C22.819,504.502 22.893,504.52 22.973,504.52L23.712,504.52C24.035,504.52 24.266,504.413 24.406,504.199C24.45,504.129 24.473,504.044 24.473,503.945L24.473,501.818Z" style="fill-rule:nonzero;"/>
    </g>
    <g id="g18792" transform="matrix(0.259722,0,0,-0.259579,-518.01,633.609)">
        <path id="path6833" d="M2024.57,2386.77C2011.3,2386.77 2000.5,2397.56 2000.5,2410.83C2000.5,2424.1 2011.3,2434.9 2024.57,2434.9C2037.84,2434.9 2048.63,2424.1 2048.63,2410.83C2048.63,2397.56 2037.84,2386.77 2024.57,2386.77" style="fill:rgb(188,188,188);fill-rule:nonzero;stroke:rgb(172,172,172);stroke-width:4.01px;"/>
        <rect id="path6843" x="2021.62" y="2395.24" width="5.904" height="31.181" style="fill:rgb(114,114,114);"/>
        <rect id="path6845" x="2008.98" y="2407.88" width="31.181" height="5.904" style="fill:rgb(114,114,114);"/>
    </g>
    <g id="g187921" serif:id="g18792" transform="matrix(0.259722,0,0,-0.259579,-383.635,633.609)">
        <path id="path68331" serif:id="path6833" d="M2024.57,2386.77C2011.3,2386.77 2000.5,2397.56 2000.5,2410.83C2000.5,2424.1 2011.3,2434.9 2024.57,2434.9C2037.84,2434.9 2048.63,2424.1 2048.63,2410.83C2048.63,2397.56 2037.84,2386.77 2024.57,2386.77" style="fill:rgb(188,188,188);fill-rule:nonzero;stroke:rgb(172,172,172);stroke-width:4.01px;"/>
        <rect id="path68431" serif:id="path6843" x="2021.62" y="2395.24" width="5.904" height="31.181" style="fill:rgb(114,114,114);"/>
        <rect id="path68451" serif:id="path6845" x="2008.98" y="2407.88" width="31.181" height="5.904" style="fill:rgb(114,114,114);"/>
    </g>
    <g id="g187922" serif:id="g18792" transform="matrix(0.259722,0,0,-0.259579,-383.635,997.215)">
        <path id="path68332" serif:id="path6833" d="M2024.57,2386.77C2011.3,2386.77 2000.5,2397.56 2000.5,2410.83C2000.5,2424.1 2011.3,2434.9 2024.57,2434.9C2037.84,2434.9 2048.63,2424.1 2048.63,2410.83C2048.63,2397.56 2037.84,2386.77 2024.57,2386.77" style="fill:rgb(188,188,188);fill-rule:nonzero;stroke:rgb(172,172,172);stroke-width:4.01px;"/>
        <rect id="path68432" serif:id="path6843" x="2021.62" y="2395.24" width="5.904" height="31.181" style="fill:rgb(114,114,114);"/>
        <rect id="path68452" serif:id="path6845" x="2008.98" y="2407.88" width="31.181" height="5.904" style="fill:rgb(114,114,114);"/>
    </g>
    <g id="g187923" serif:id="g18792" transform="matrix(0.259722,0,0,-0.259579,-518.01,997.215)">
        <path id="path68333" serif:id="path6833" d="M2024.57,2386.77C2011.3,2386.77 2000.5,2397.56 2000.5,2410.83C2000.5,2424.1 2011.3,2434.9 2024.57,2434.9C2037.84,2434.9 2048.63,2424.1 2048.63,2410.83C2048.63,2397.56 2037.84,2386.77 2024.57,2386.77" style="fill:rgb(188,188,188);fill-rule:nonzero;stroke:rgb(172,172,172);stroke-width:4.01px;"/>
        <rect id="path68433" serif:id="path6843" x="2021.62" y="2395.24" width="5.904" height="31.181" style="fill:rgb(114,114,114);"/>
        <rect id="path68453" serif:id="path6845" x="2008.98" y="2407.88" width="31.181" height="5.904" style="fill:rgb(114,114,114);"/>
    </g>
</svg>
